<svg aria-hidden="true" style="width:0;height:0;position:absolute;overflow:hidden" xmlns="http://www.w3.org/2000/svg"><defs><symbol id="download" viewBox="0 0 32 32"><path d="M28 0H0v32h32V4l-4-4zM16 4h4v8h-4V4zm12 24H4V4h2v10h18V4h2.343L28 5.657V28z"/></symbol><symbol id="comment" viewBox="0 0 36 32"><path d="M34 28.161a3.65 3.65 0 0 0 2 3.256v.498a7.42 7.42 0 0 1-6.414-2.251c-.819.218-1.688.336-2.587.336-4.971 0-9-3.582-9-8s4.029-8 9-8 9 3.582 9 8c0 1.73-.618 3.331-1.667 4.64a3.635 3.635 0 0 0-.333 1.522zM16 0c8.702 0 15.781 5.644 15.995 12.672A12.262 12.262 0 0 0 27 11.625c-2.986 0-5.807 1.045-7.942 2.943-2.214 1.968-3.433 4.607-3.433 7.432 0 1.396.298 2.747.867 3.993a19.66 19.66 0 0 1-2.987-.151C10.068 29.279 5.966 29.895 2 29.986v-.841C4.142 28.096 6 26.184 6 24c0-.305-.024-.604-.068-.897C2.313 20.72 0 17.079 0 13 0 5.82 7.163 0 16 0z"/></symbol><symbol id="search" viewBox="0 0 32 32"><path d="m31.008 27.231-7.58-6.447c-.784-.705-1.622-1.029-2.299-.998a11.954 11.954 0 0 0 2.87-7.787c0-6.627-5.373-12-12-12s-12 5.373-12 12 5.373 12 12 12c2.972 0 5.691-1.081 7.787-2.87-.031.677.293 1.515.998 2.299l6.447 7.58c1.104 1.226 2.907 1.33 4.007.23s.997-2.903-.23-4.007zM12 20a8 8 0 1 1 0-16 8 8 0 0 1 0 16z"/></symbol><symbol id="view" viewBox="0 0 32 32"><path d="M16 6C9.021 6 2.972 10.064 0 16c2.972 5.936 9.021 10 16 10s13.027-4.064 16-10c-2.972-5.936-9.021-10-16-10zm7.889 5.303A15.212 15.212 0 0 1 28.559 16a15.223 15.223 0 0 1-4.67 4.697C21.527 22.204 18.799 23 16 23s-5.527-.796-7.889-2.303A15.212 15.212 0 0 1 3.441 16a15.223 15.223 0 0 1 5.041-4.925 8 8 0 1 0 15.036 0c.124.074.248.15.371.228zM16 13a3 3 0 1 1-6 0 3 3 0 0 1 6 0z"/></symbol><symbol id="heart" viewBox="0 0 32 32"><path d="M23.6 2c-3.363 0-6.258 2.736-7.599 5.594C14.659 4.736 11.764 2 8.4 2 3.763 2 0 5.764 0 10.401c0 9.433 9.516 11.906 16.001 21.232C22.131 22.365 32 19.533 32 10.401 32 5.764 28.237 2 23.6 2z"/></symbol><symbol id="arrow-up" viewBox="0 0 32 32"><path d="m27.414 12.586-10-10a2 2 0 0 0-2.828 0l-10 10a2 2 0 1 0 2.828 2.828L14 8.828V28a2 2 0 1 0 4 0V8.828l6.586 6.586c.39.39.902.586 1.414.586s1.024-.195 1.414-.586a2 2 0 0 0 0-2.828z"/></symbol><symbol id="moon" viewBox="0 0 23 28"><path d="M19.719 20.359c-.562.094-1.141.141-1.719.141-5.797 0-10.5-4.703-10.5-10.5 0-1.984.578-3.922 1.625-5.578A9.952 9.952 0 0 0 2 14c0 5.516 4.484 10 10 10 3.016 0 5.844-1.375 7.719-3.641zm3.172-1.328A12.035 12.035 0 0 1 12 26C5.391 26 0 20.609 0 14A11.95 11.95 0 0 1 11.547 2.016a.976.976 0 0 1 .953.609c.172.391.063.844-.234 1.125A8.372 8.372 0 0 0 9.5 10c0 4.688 3.813 8.5 8.5 8.5a8.352 8.352 0 0 0 3.563-.797 1 1 0 0 1 1.328 1.328z"/></symbol><symbol id="sun" viewBox="0 0 32 32"><path d="M16 26a2 2 0 0 1 2 2v2a2 2 0 1 1-4 0v-2a2 2 0 0 1 2-2zm0-20a2 2 0 0 1-2-2V2a2 2 0 1 1 4 0v2a2 2 0 0 1-2 2zm14 8a2 2 0 1 1 0 4h-2a2 2 0 1 1 0-4h2zM6 16a2 2 0 0 1-2 2H2a2 2 0 1 1 0-4h2a2 2 0 0 1 2 2zm19.899 7.071 1.414 1.414a2 2 0 1 1-2.828 2.828l-1.414-1.414a2 2 0 1 1 2.828-2.828zM6.101 8.929 4.687 7.515a2 2 0 1 1 2.828-2.828l1.414 1.414a2 2 0 1 1-2.828 2.828zm19.798 0a2 2 0 1 1-2.828-2.828l1.414-1.414a2 2 0 1 1 2.828 2.828l-1.414 1.414zM6.101 23.071a2 2 0 1 1 2.828 2.828l-1.414 1.414a2 2 0 1 1-2.828-2.828l1.414-1.414zM16 8a8 8 0 1 0 0 16 8 8 0 0 0 0-16zm0 13a5 5 0 1 1 .001-10.001A5 5 0 0 1 16 21z"/></symbol></defs></svg>